<?xml version="1.0" encoding="UTF-8" standalone="no"?>
<svg
   xmlns:dc="http://purl.org/dc/elements/1.1/"
   xmlns:cc="http://creativecommons.org/ns#"
   xmlns:rdf="http://www.w3.org/1999/02/22-rdf-syntax-ns#"
   xmlns:svg="http://www.w3.org/2000/svg"
   xmlns="http://www.w3.org/2000/svg"
   xmlns:xlink="http://www.w3.org/1999/xlink"
   width="300"
   height="300"
   version="1.1"
   id="svg4801">
  <path
     class="fil4"
     d="M 149.98311,1.2246555e-5 C 67.163254,1.2246555e-5 0,67.177115 0,150.00865 0,232.84804 67.163254,300 149.98311,300 232.84932,300 300,232.84765 300,150.00865 300,67.177115 232.84932,1.2246555e-5 149.98311,1.2246555e-5 Z"
     id="path22"
     style="fill:#008b3e" />
  <path
     id="path20"
     d="M 150.00391,7.5000121 C 87.749785,7.5000121 37.279296,57.980171 37.279296,120.25196 37.279296,182.48802 87.750091,232.95312 150.01953,232.95312 212.27365,232.95312 262.73632,182.48802 262.73632,120.25196 262.73632,57.980171 212.27335,7.5000121 150.00391,7.5000121 Z M 109.23242,10.300793 C 48.7204,27.928555 4.4824213,83.805596 4.4824213,150.00782 4.4824213,230.35332 69.655229,295.4883 149.98242,295.4883 230.39169,295.4883 295.52531,230.35332 295.51757,150.00782 295.51757,83.81407 251.31446,27.9439 190.78319,10.308605 235.435,26.874996 267.26366,69.851599 267.26366,120.25196 267.26366,184.96777 214.75532,237.45509 150.01953,237.45509 85.229551,237.45509 32.736327,184.96777 32.736327,120.25196 32.736327,69.844819 64.564013,26.862301 109.23242,10.300793 Z"
     style="fill:#d8372d" />
  <path
     id="path24"
     d="M 150.00391,7.5000121 C 87.749785,7.5000121 37.279296,57.980171 37.279296,120.25196 37.279296,182.48802 87.750091,232.95312 150.01953,232.95312 212.27365,232.95312 262.73632,182.48802 262.73632,120.25196 262.73632,57.980171 212.27335,7.5000121 150.00391,7.5000121 Z"
     style="fill:#ffffff" />
  <use
     height="100%"
     width="100%"
     transform="translate(61.859288,0.00377197)"
     id="use4971"
     xlink:href="#path36"
     y="0"
     x="0" />
  <use
     height="100%"
     width="100%"
     transform="translate(37.109319)"
     id="use4977"
     xlink:href="#path38"
     y="0"
     x="0" />
  <use
     height="100%"
     width="100%"
     transform="translate(24.734222)"
     id="use4975"
     xlink:href="#path38"
     y="0"
     x="0" />
  <use
     height="100%"
     width="100%"
     transform="translate(12.376119)"
     id="use4973"
     xlink:href="#path38"
     y="0"
     x="0" />
  <path
     class="fil4"
     d="M 123.27271,149.28377 C 123.22168,148.85709 122.83823,148.57263 122.26768,148.44278 119.90511,148.79677 114.18269,150.41232 114.92794,158.53487 114.9836,158.95071 115.36242,159.23827 115.90822,159.37123 118.27079,159.02803 124.02879,157.41095 123.27271,149.28377 Z"
     id="path36"
     style="clip-rule:evenodd;fill:#008b3e;fill-rule:nonzero;stroke-width:392.70355225;image-rendering:optimizeQuality;shape-rendering:geometricPrecision;text-rendering:geometricPrecision" />
  <path
     class="fil4"
     d="M 137.53158,150.01022 C 137.89648,148.94505 136.98578,147.94946 135.51845,147.6588 132.82346,148.01594 128.08131,149.81388 125.40332,157.8189 125.05388,158.88718 125.94294,159.88741 127.43964,160.14559 130.13,159.80239 134.87679,158.00287 137.53158,150.01022 Z"
     id="path38"
     style="fill:#008b3e" />
  <path
     class="fil4"
     d="M 136.75084,143.2876 H 150.00471 150.02018 163.30038 C 163.30038,143.2876 161.18985,133.10586 178.91064,106.28171 178.91064,106.28171 207.04348,70.892935 178.91064,44.071964 178.91064,44.071964 173.46033,40.335375 172.73672,40.505405 172.73672,40.505405 155.06999,31.139913 150.02018,21.047815 V 21.047815 H 150.00471 V 21.047815 21.047815 C 144.98118,31.139913 127.28355,40.505405 127.28355,40.505405 126.57231,40.335334 121.1251,44.071964 121.1251,44.071964 92.992254,70.892972 121.1251,106.28171 121.1251,106.28171 138.83357,133.10582 136.75084,143.2876 136.75084,143.2876 Z"
     id="path40"
     style="fill:#008b3e" />
  <path
     class="fil3"
     d="M 149.98311,51.040082 C 138.33107,51.040082 128.79266,60.530793 128.79266,72.255443 128.79266,84.014093 138.33107,93.523336 149.98311,93.565084 161.7573,93.523336 171.23079,84.003254 171.23079,72.255443 171.23079,60.530793 161.73103,51.040082 149.98311,51.040082 Z"
     id="path42"
     style="fill:#d8372d" />
  <path
     class="fil4"
     d="M 103.97352,99.264661 C 94.076389,93.062226 83.31957,90.580936 74.201736,92.165586 63.751089,94.218655 58.036383,101.45685 55.183668,107.5387 54.807945,108.51886 54.359549,109.79738 53.974552,111.26139 52.232,119.02217 53.591096,128.06762 57.785895,136.83483 65.431773,150.28631 79.118599,149.98949 79.062949,149.52723 77.867749,140.56062 78.572809,134.65964 80.094254,130.75451 80.892086,128.64117 82.07182,126.82775 83.733973,125.41627 91.570052,118.84279 106.51699,123.74661 117.11146,136.40037 118.98234,138.62504 120.55636,140.94706 121.88762,143.25831 H 130.65294 C 130.65294,142.90891 130.63438,142.55491 130.63438,142.21634 125.3681,118.3342 113.74849,105.78866 103.97352,99.264661 Z"
     id="path44"
     style="fill:#008b3e" />
  <use
     height="100%"
     width="100%"
     transform="matrix(-1,0,0,1,300.04853,0)"
     id="use4969"
     xlink:href="#path44"
     y="0"
     x="0" />
  <path
     class="fil4"
     d="M 163.19262,164.35469 H 150.07325 150.02222 136.86727 C 136.86727,164.35469 139.29633,182.57239 124.18702,199.2163 124.18702,199.2163 132.72349,210.48489 150.02222,219.39892 V 219.42055 L 150.02995,219.39892 C 150.02995,219.42055 150.07325,219.42055 150.07325,219.42055 V 219.39892 C 167.30549,210.48485 175.81412,199.2163 175.81412,199.2163 160.74036,182.57239 163.19262,164.35469 163.19262,164.35469 Z"
     id="path48"
     style="fill:#008b3e" />
  <path
     class="fil4"
     d="M 132.1386,164.28793 C 132.17571,165.41648 132.20509,166.5543 132.17571,167.71227 132.1386,168.33218 132.10613,168.93667 132.05047,169.56896 131.38252,178.5155 128.17883,186.22523 123.6176,190.88786 120.63501,193.91332 117.09116,195.63088 113.32773,195.52113 112.2887,195.47939 111.31306,195.26915 110.34978,194.99243 105.02317,193.39389 100.60884,188.06802 98.238514,180.76333 98.199861,180.66285 98.153475,180.58553 98.124097,180.48194 98.646707,180.72929 99.177047,180.9581 99.693474,181.17301 102.55082,181.86868 108.76186,182.85964 114.18277,180.43867 119.41351,177.44259 122.87543,171.43495 123.92681,164.28793 H 123.96701 131.77835 Z"
     id="path50"
     style="fill:#008b3e" />
  <use
     height="100%"
     width="100%"
     transform="matrix(-1,0,0,1,299.99636,0)"
     id="use4967"
     xlink:href="#path50"
     y="0"
     x="0" />
</svg>
